# xmcd CD database file
#
# Track frame offsets:
#	150
#	10707
#	24002
#	40440
#	53772
#	67450
#	79702
#	91612
#	103202
#	112340
#	124455
#	140190
#	150262
#	165205
#	179230
#	190952
#	202792
#	214325
#
# Disc length: 3027 seconds
#
# Revision: 2
# Processed by: cddbd v1.5.1PL0 Copyright (c) Steve Scherf et al.
# Submitted via: CDex 1.40Release
#
DISCID=fd0bd112
DTITLE=Slim Dusty - Australia Is His Name CD 2
DYEAR=1900
DGENRE=Country
TTITLE0=Horse and Hobble Days
TTITLE1=Leave Him In the Long Yard
TTITLE2=Banjo's Man
TTITLE3=Old Time Country Halls
TTITLE4=The Pub With No Beer
TTITLE5=Willy Willy
TTITLE6=Old Man Drought
TTITLE7=The Melbourne Cup
TTITLE8=Good Old Country Style
TTITLE9=When the Rain Tumbles Down in July
TTITLE10=Indian Pacific
TTITLE11=Medley
TTITLE12=Australian Bushmen
TTITLE13=Clancy of the Over Flow
TTITLE14=Bush Poets of Australia
TTITLE15=Things I See Around Me
TTITLE16=The Dying Stockman
TTITLE17=Walk A Country Mile
EXTD=ID3G: 2
EXTT0=
EXTT1=
EXTT2=
EXTT3=
EXTT4=
EXTT5=
EXTT6=
EXTT7=
EXTT8=
EXTT9=
EXTT10=
EXTT11=Boomerang\nTie Me Kangaroo Down, Sport\nWhere the Dog Sits On the Tuckerbox\n
EXTT12=
EXTT13=
EXTT14=
EXTT15=
EXTT16=
EXTT17=
PLAYORDER=
